<svg width="1578" height="816" viewBox="0 0 1578 816" fill="none" xmlns="http://www.w3.org/2000/svg">
<path d="M1281.28 0.303107C1274.41 1.40174 1263.79 4.42298 1260.31 6.34559C1255.92 8.72596 1253.91 12.2965 1254.73 16.2333C1255.55 19.7123 1257.93 21.2687 1266.08 23.4659C1269.65 24.473 1275.51 26.5787 1279.17 28.2267L1285.67 31.1564L1291.26 25.0223C1300.23 15.1346 1303.34 17.515 1295.84 28.5929C1293.55 31.8888 1291.99 35.0016 1292.45 35.3678C1292.82 35.734 1295.93 38.2059 1299.32 40.7694L1305.36 45.3471L1309.39 41.9596C1316.16 36.0087 1318.45 34.5438 1319.82 35.0931C1322.48 36.1002 1321.11 39.5792 1316.07 44.5231C1313.32 47.2697 1311.04 49.8331 1311.04 50.1993C1311.04 51.3895 1317.72 60.087 1318.63 60.087C1319 60.087 1320.28 59.6293 1321.29 59.08C1322.3 58.5306 1325.78 57.3405 1328.98 56.4249C1333.83 55.0516 1334.93 54.9601 1336.4 55.9672C1337.68 56.8827 1337.77 57.6151 1337.13 58.7138C1336.12 60.3617 1327.24 64.2985 1322.2 65.3971C1319.18 66.038 1319.09 66.1295 1318.73 71.8973L1318.36 77.7567L1322.2 77.1159C1332.64 75.4679 1338.04 75.3763 1339.32 76.9327C1341.52 79.5878 1338.68 81.1442 1327.97 83.2499C1322.57 84.257 1318.08 85.6303 1317.9 86.088C1317.72 86.6373 1316.89 90.5741 1315.98 94.8771C1314.06 104.49 1313.23 106.138 1311.13 105.406C1308.2 104.49 1259.77 106.779 1243.74 108.61C1181.58 115.751 1130.04 132.414 1085.45 159.88C1038.02 189.085 1002.59 227.354 977.6 276.151C974.396 282.469 971.008 289.427 970.093 291.715C969.177 294.004 967.712 297.483 966.797 299.497C957.367 321.287 948.212 355.894 944.275 384.641C938.965 423.185 938.69 470.243 943.542 508.695C945.007 520.414 949.493 544.95 951.691 553.099C955.353 567.106 957.001 572.782 959.106 578.642C960.388 582.212 961.945 586.79 962.585 588.804C963.226 590.818 965.515 596.586 967.621 601.621C992.248 659.483 1031.62 705.534 1084.08 737.669C1112.18 754.881 1138.64 766.508 1173.25 776.579C1199.71 784.361 1235.96 790.495 1273.04 793.424C1284.94 794.34 1349.76 794.798 1351.14 793.974C1351.5 793.791 1358.55 793.15 1366.88 792.6C1375.21 791.96 1384.64 791.136 1387.94 790.678C1391.24 790.22 1398.83 789.121 1404.88 788.389C1456.33 781.431 1510.07 765.959 1552.09 745.909L1565.55 739.5L1565.37 557.951L1565.09 376.402L1411.29 375.944L1257.48 375.486L1252.62 372.831C1243.29 367.613 1227.36 348.387 1217.93 330.9C1212.71 321.195 1210.88 319.181 1209.14 320.921C1206.57 323.484 1200.71 345.732 1199.8 356.718C1198.97 365.415 1200.35 372.557 1204.1 380.339C1208.5 389.402 1214.63 394.987 1225.07 399.473L1233.67 403.135L1233.95 465.116L1234.13 527.006L1307.65 527.189L1381.07 527.464V580.015V632.566L1377.41 633.848C1344.82 645.567 1292.45 646.391 1251.62 635.862C1221.86 628.172 1201.08 616.636 1181.49 597.044C1158.33 574.064 1145.6 547.88 1137.63 507.322C1131.68 476.744 1131.68 424.467 1137.63 392.881C1140.29 378.599 1143.95 365.599 1148.25 354.429C1156.77 332.456 1166.84 316.892 1182.4 301.237C1202.73 280.821 1226.62 268.095 1257.29 261.503C1279.08 256.834 1310.85 255.461 1323.85 258.665C1339.23 262.51 1354.43 267.637 1367.34 273.405C1387.21 282.377 1420.72 298.49 1432.62 304.808C1449.28 313.78 1451.2 314.604 1462.1 318.266C1474.55 322.477 1476.93 322.843 1489.01 321.836C1515.47 319.914 1537.08 312.956 1550.08 302.336L1555.76 297.666L1549.44 297.117C1541.93 296.476 1531.59 292.997 1525.36 289.06C1519.04 284.941 1511.54 276.792 1511.54 273.954C1511.54 271.849 1514.37 268.827 1516.3 268.827C1516.75 268.827 1519.68 271.299 1522.89 274.229C1532.68 283.384 1544.04 287.87 1554.57 286.68C1557.86 286.314 1561.71 285.948 1563.26 285.856C1565.46 285.765 1566.65 284.849 1569.31 280.912C1573.7 274.32 1575.44 269.285 1576.72 259.306C1577.91 250.059 1576.63 231.84 1574.16 222.318C1571.32 211.515 1560.61 191.74 1550.9 179.746C1543.76 170.683 1526.82 154.02 1515.84 145.14C1505.86 136.991 1485.35 123.442 1473.63 117.216C1465.21 112.73 1445.07 105.131 1437.65 103.575C1436 103.208 1434.63 102.568 1434.63 102.018C1434.63 101.469 1436.83 98.7223 1439.48 95.8842C1446.35 88.3768 1464.11 62.6505 1467.96 54.5939C1471.8 46.7203 1471.98 45.2555 1469.33 42.6005C1467.04 40.3117 1463.2 40.7694 1456.51 44.1569C1454.13 45.3471 1449.55 47.2697 1446.35 48.5514C1443.15 49.7416 1433.99 53.7699 1425.93 57.5236C1410.92 64.5731 1392.7 71.9889 1390.5 71.9889C1389.86 71.9889 1387.48 68.9677 1385.28 65.3055C1375.12 48.5514 1366.61 38.5721 1353.15 27.1281C1337.31 13.5783 1325.59 7.16956 1308.47 2.50037C1301.79 0.669318 1286.59 -0.612421 1281.28 0.303107ZM1377.87 80.0455C1377.87 81.0526 1374.76 83.433 1368.16 87.0951C1351.87 96.3419 1344.09 102.11 1337.86 109.526C1329.71 119.23 1328.16 122.801 1327.61 133.329C1327.06 141.477 1326.97 142.027 1325.04 142.301C1321.66 142.759 1320.74 139.372 1321.93 130.674C1323.12 121.794 1325.78 116.026 1332.73 107.42C1338.78 100.096 1343.72 95.8842 1353.52 89.8417C1370.64 79.3131 1377.87 76.3834 1377.87 80.0455ZM1421.17 113.462C1418.88 118.498 1391.97 134.245 1385.74 134.245C1380.71 134.245 1381.99 129.392 1387.3 128.202C1392.79 127.012 1404.88 120.787 1412.57 115.11C1420.53 109.342 1423.28 108.793 1421.17 113.462ZM1417.97 173.521C1421.81 175.535 1423.74 177.458 1425.84 181.578C1427.76 185.423 1427.67 187.803 1425.38 192.472C1421.54 200.437 1410.1 202.635 1402.77 196.775C1396.36 191.648 1393.34 182.585 1396.18 177.183C1398.93 172.148 1411.19 170.042 1417.97 173.521ZM1560.33 229.276C1564.45 232.939 1571.04 242.643 1571.04 245.024C1571.04 248.869 1568.94 250.059 1564.73 248.869C1557.4 246.672 1550.35 239.714 1549.44 233.854C1548.34 227.445 1555.11 224.607 1560.33 229.276Z" fill="black"/>
<path d="M276.031 21.269C263.58 23.1 260.834 23.8325 254.883 27.1284C246.46 31.706 239.96 37.6569 234.924 45.3473C232.635 48.7348 229.797 51.9391 228.607 52.4885C227.417 53.0378 223.938 55.7844 220.917 58.6225C215.973 63.2001 215.057 63.6579 213.043 62.9255C206.36 60.362 199.31 59.9042 190.43 61.5522C179.352 63.4748 165.161 68.2355 158.569 72.1723C151.245 76.5668 144.379 83.7079 141.998 89.5673L139.893 94.5111L134.399 95.5182C127.075 96.8915 111.42 104.765 105.56 109.984C99.884 115.019 96.5881 121.428 95.2148 130.034C94.0247 137.541 93.8415 137.907 91.2781 137.907C88.1653 137.907 78.8269 142.668 73.2422 147.062C60.1501 157.408 52.5513 170.775 50.5371 186.888L49.8962 192.289L45.5933 193.663C36.438 196.501 17.6697 215.178 11.9019 227.263C8.69751 233.946 6.95801 244.108 7.59888 252.806C8.05664 259.306 12.085 271.025 15.0146 274.229C16.2964 275.602 16.2964 276.152 15.0146 279.814C13.1836 284.941 13.7329 296.293 16.0217 303.801L17.6697 309.019L14.8315 314.421C9.24683 324.949 7.96509 334.745 10.5286 348.021C12.8174 360.38 18.219 369.444 26.9165 376.036C31.0364 379.057 31.0364 379.24 31.1279 384.459C31.1279 387.388 31.7688 391.234 32.5928 393.156C34.2407 397.276 38.7268 402.037 42.2058 403.502C44.6777 404.417 44.7693 404.783 44.3115 408.354C44.0369 410.368 43.6707 413.023 43.396 414.213C42.7551 417.601 44.7693 428.129 47.2412 433.165C52.3682 444.151 62.8052 451.933 74.707 453.764C78.2776 454.313 81.7566 454.68 82.3975 454.496C83.2214 454.313 83.9539 456.419 84.7778 461.18C89.0808 485.807 107.117 497.252 129.089 489.195C131.836 488.188 134.674 486.998 135.315 486.448C136.597 485.441 136.505 485.35 140.808 490.934C145.203 496.702 153.168 500.547 161.957 501.097C166.351 501.463 171.02 501.188 173.95 500.456C178.436 499.357 178.802 499.449 179.626 501.005C181.458 504.484 199.31 521.147 204.529 524.168C218.445 532.408 238.22 532.682 253.876 524.809L260.01 521.696L262.39 524.717C267.975 532.042 280.243 536.802 291.321 535.887L297.363 535.337L298.553 538.176C300.659 543.211 308.075 549.803 315.582 553.282C321.991 556.303 323.547 556.578 330.963 556.669C335.541 556.761 340.485 556.486 342.041 556.12C344.696 555.571 344.879 555.662 345.886 559.599C347.168 564.543 352.386 570.494 356.598 571.867L359.711 572.874L359.161 579.191C358.704 584.593 358.887 585.966 360.626 588.896C361.725 590.727 362.549 592.375 362.366 592.466C362.183 592.558 359.802 593.84 357.056 595.213C350.372 598.6 346.893 601.53 341.583 608.03C336.365 614.531 332.886 620.482 329.956 627.531L327.85 632.75L322.082 632.841C315.582 632.841 309.631 635.13 303.955 639.616C302.032 641.081 300.11 642.363 299.652 642.363C299.286 642.363 298.096 640.898 297.089 639.067C294.8 634.764 290.039 630.644 283.997 627.897C279.694 625.975 278.046 625.7 272.003 626.066C267.334 626.341 263.763 627.165 261.108 628.538L257.263 630.552L252.228 625.151C243.988 616.27 229.248 610.319 215.424 610.319C207.001 610.319 201.508 612.242 191.62 618.376C187.408 621.031 183.838 623.137 183.563 623.137C183.289 623.137 181.824 621.763 180.267 620.024C174.957 613.89 165.985 611.418 156.83 613.432C154.083 614.073 153.992 613.981 153.351 610.411C151.978 601.988 142.181 592.833 131.104 589.628C124.512 587.706 113.434 588.347 105.194 591.093L99.3347 593.107L97.5037 590.452C93.5669 584.868 84.8694 577.177 79.834 574.797C75.8057 572.874 72.876 572.325 66.7419 572.05C56.8542 571.592 51.9104 573.698 46.6003 580.29C42.3889 585.691 41.2903 589.171 40.5579 599.241C40.0085 606.749 39.917 606.84 37.1704 608.03C29.8462 611.143 16.7541 623.777 12.6343 631.834C5.95093 644.743 4.21143 656.462 7.14111 668.547C9.06372 676.512 11.0779 680.998 14.0076 684.202L15.8386 686.216L12.085 690.336C10.0708 692.534 7.32422 696.013 6.04248 698.027C3.479 702.147 0 713.499 0 717.894C0 725.584 4.21143 731.901 13.7329 738.585C16.4795 740.507 19.8669 742.979 21.1487 744.078C22.7966 745.359 25.177 746.092 29.2053 746.275C34.5154 746.641 35.2478 746.916 38.0859 750.12C39.7339 752.043 41.3818 754.789 41.6565 756.346C42.8467 761.29 47.8821 769.712 51.9104 773.283C62.0727 782.164 74.6155 784.452 85.6018 779.417C88.623 777.952 91.7358 776.213 92.5598 775.48C94.0247 774.199 94.3909 774.473 96.8628 778.135C103.271 787.382 112.885 792.875 122.498 792.784C127.258 792.784 129.456 792.143 135.04 789.396L141.815 786.009L146.667 789.396C150.787 792.143 151.978 792.601 154.907 792.143C156.738 791.868 159.76 790.678 161.591 789.671L164.886 787.657L170.013 792.875C173.492 796.354 177.521 799.192 182.098 801.39C188.141 804.319 189.972 804.777 197.754 805.143C208.008 805.601 211.395 804.777 217.346 800.2L221.558 796.995L224.487 799.925C228.424 803.77 232.727 805.51 238.953 805.601C244.354 805.693 249.847 803.495 253.052 799.925C254.059 798.826 255.066 798.002 255.524 798.002C255.89 798.002 257.263 799.925 258.636 802.214C265.32 813.658 287.018 818.968 300.018 812.376C304.962 809.813 310.089 805.327 314.209 799.833L316.589 796.629L319.702 799.467C321.35 801.115 325.012 803.587 327.759 804.96C332.336 807.341 333.618 807.524 341.949 807.524C349.182 807.524 352.203 807.066 356.232 805.51C362.274 803.129 368.774 797.728 371.246 793.058C372.711 790.312 373.444 789.763 374.908 790.312C381.5 792.509 387.451 791.41 391.205 787.199C392.761 785.46 392.853 785.46 397.98 787.108C404.297 789.213 413.818 789.305 419.586 787.382C422.79 786.284 425.354 784.269 429.749 779.6L435.608 773.283H440.552C446.594 773.283 453.094 770.262 454.834 766.508C455.933 764.311 456.482 764.036 459.412 764.494C474.609 766.691 481.934 765.684 494.751 759.642C507.751 753.508 519.379 740.782 523.682 728.056C525.33 723.021 525.97 722.197 528.259 721.739C536.224 720.091 543.64 706.633 540.161 700.041C539.337 698.576 540.253 697.66 546.844 693.358C557.19 686.674 562.683 679.167 565.796 667.723C567.169 662.596 566.437 651.152 564.331 646.208C563.599 644.468 563.049 642.912 563.049 642.82C563.049 642.637 564.423 641.63 566.162 640.532C570.373 637.968 573.12 632.2 573.12 625.792C573.12 623.045 572.479 619.841 571.747 618.559C571.014 617.277 570.19 615.812 569.916 615.171C569.55 614.622 570.74 611.967 572.571 609.221C578.522 600.157 579.987 594.206 579.987 579.191V565.916L576.782 559.507C574.86 555.479 571.655 551.085 568.268 547.789C562.958 542.479 562.866 542.387 564.148 539.549C564.789 537.901 565.338 533.598 565.247 529.753C565.155 518.309 559.936 509.428 551.605 506.59L547.943 505.308L548.218 499.907C548.675 492.765 546.02 485.899 540.527 479.582C535.767 474.089 531.097 471.342 525.055 470.518C521.576 470.06 520.843 469.603 520.386 467.588C517.364 453.947 510.956 444.059 499.878 435.911C492.371 430.418 478.18 425.657 467.377 425.108C461.975 424.833 461.884 424.742 460.236 421.171C455.017 410.185 439.545 402.861 428.101 406.065L424.438 406.981L419.22 401.671C415.649 398.008 411.713 395.17 406.952 392.79C400.635 389.677 398.987 389.219 391.388 388.945C385.345 388.67 381.5 388.945 377.838 390.043L372.711 391.508L370.239 389.219C367.31 386.473 361.816 384.825 357.697 385.557C354.95 386.015 354.675 385.832 352.661 381.437C347.443 370.268 335.175 361.296 325.104 361.296C318.603 361.296 309.814 363.493 306.427 365.965L303.864 367.888L301.575 365.416C297.363 360.93 290.405 359.282 284.363 361.387C281.616 362.303 281.25 362.12 276.398 357.359C270.172 351.317 264.13 348.936 256.714 349.669C252.411 350.126 251.77 349.943 251.77 348.57C251.77 343.992 248.657 337.034 244.72 332.823C240.051 327.787 230.164 322.386 223.938 321.47L220.001 320.829L220.459 314.604C220.734 310.026 220.459 307.646 219.36 305.449C217.346 301.329 217.438 300.871 220.642 300.871C222.107 300.871 225.677 299.955 228.607 298.857C238.129 295.378 250.854 280.363 252.319 271.025L252.869 267.363H258.453C263.855 267.271 267.7 265.989 273.01 262.236C274.292 261.32 275.116 261.686 277.954 264.525C284.912 271.299 295.532 274.412 305.054 272.581C311.096 271.391 319.702 267.454 324.738 263.701C326.294 262.51 328.857 261.503 330.414 261.503C337.83 261.503 353.394 265.898 382.324 275.969C415.924 287.87 418.121 288.603 450.897 297.758C483.215 306.822 490.906 308.195 508.575 308.195C521.942 308.195 523.956 308.012 530.548 305.815C548.035 300.139 558.655 289.244 574.493 260.679C585.022 241.911 588.226 230.65 588.043 213.438C587.952 197.416 584.106 185.331 574.86 171.599C565.338 157.499 546.936 142.668 523.224 129.942C517.639 126.921 511.322 123.35 509.216 121.977C503.448 118.315 482.3 106.688 472.778 101.927C461.7 96.3422 447.052 90.1166 432.129 84.6234C425.354 82.1515 418.396 79.0387 416.84 77.8485C415.192 76.5668 411.621 72.1723 408.874 68.0524C403.29 59.538 387.085 43.2416 378.845 37.84C370.056 32.0722 362.915 29.8749 353.119 29.8749C337.83 29.8749 322.815 32.1638 316.956 35.2765C315.491 36.009 314.575 35.5512 311.188 32.0722C308.99 29.7834 305.695 27.1284 303.955 26.2128C296.722 22.5507 283.539 20.1703 276.031 21.269ZM380.31 82.3346C381.592 84.3488 377.563 88.5602 371.796 91.3068C366.394 93.8703 357.88 94.1449 353.577 91.8561C350.555 90.2081 350.555 90.2081 347.717 92.5885C340.942 98.2648 335.541 99.5465 327.026 97.5324C321.442 96.1591 318.97 94.1449 320.709 92.4054C321.716 91.3983 323.181 91.3983 328.766 92.2223C335.083 93.2294 335.815 93.1378 339.478 91.3068C341.675 90.2081 344.238 88.2855 345.337 87.0953C347.717 84.2572 350.464 84.2572 356.964 86.7291C361.359 88.3771 362.549 88.4686 366.119 87.5531C368.5 87.0038 371.796 85.1727 373.81 83.3417C377.472 79.9542 378.754 79.7711 380.31 82.3346ZM304.596 107.878C306.335 109.343 306.061 113.92 304.23 114.836C303.314 115.294 301.025 115.934 299.194 116.301C294.159 117.216 290.222 120.878 290.222 124.632C290.222 127.012 291.229 128.66 295.258 132.78C301.025 138.64 301.666 141.478 297.913 143.95C295.715 145.414 295.349 145.414 291.321 143.492C281.616 138.731 277.405 133.329 277.405 125.731C277.405 120.329 280.06 116.667 287.292 111.631C295.441 106.047 301.025 104.857 304.596 107.878ZM414.276 153.013C424.988 159.239 424.53 173.521 413.361 177.733C407.959 179.838 402.649 179.106 398.346 175.627C388.824 167.936 387.36 156.767 395.416 152.556C400.452 149.901 409.332 150.084 414.276 153.013ZM315.582 176.451C321.167 179.197 324.28 184.691 324.28 191.923C324.28 196.959 324.463 197.599 326.752 198.698C332.794 201.902 339.294 210.508 340.027 216.459C340.759 221.586 339.661 226.164 337.646 226.53C336.548 226.713 336.273 225.981 336.273 223.326C336.182 217.833 334.442 212.523 331.146 208.586C328.583 205.381 326.935 204.191 320.435 201.078C319.427 200.529 319.153 199.156 319.336 194.853C319.702 188.536 317.871 183.409 314.392 181.303C307.343 177.092 307.434 177.183 308.624 175.81C309.998 174.07 310.913 174.162 315.582 176.451ZM557.007 209.776C561.859 214.72 566.711 221.861 566.711 224.058C566.711 225.889 564.331 228.544 562.775 228.544C561.401 228.544 552.978 224.424 551.147 222.868C547.943 220.213 544.647 214.811 544.556 212.156C544.464 208.494 547.028 205.656 550.415 205.656C552.338 205.656 554.169 206.755 557.007 209.776ZM518.738 253.355C528.717 262.693 542.358 267.546 552.338 265.257C558.655 263.884 562.134 265.074 562.134 268.828C562.134 278.441 539.154 278.441 522.4 268.828C517.273 265.989 506.287 255.186 506.287 253.08C506.287 250.975 509.033 247.77 510.956 247.77C511.963 247.77 515.442 250.242 518.738 253.355Z" fill="black"/>
<path d="M720.062 424.192C692.963 425.84 665.863 434.08 647.644 446.073C639.587 451.383 628.052 463.285 623.291 471.25C613.312 487.913 609.467 509.794 613.037 530.21C616.425 550.169 624.115 564.817 641.235 583.952C645.996 589.262 650.299 593.839 650.757 594.023C651.215 594.114 654.602 597.044 658.264 600.431L664.856 606.474L657.715 611.326C629.425 630.277 611.114 648.13 602.6 664.793C591.614 686.582 592.071 721.281 603.607 743.528C616.516 768.339 642.609 786.283 675.293 792.875C724.915 802.854 788.91 789.579 827.728 761.198C831.116 758.818 834.32 756.803 834.869 756.803C835.602 756.803 835.968 761.473 836.06 772.093C836.151 780.607 836.243 788.297 836.243 789.305C836.334 791.136 836.975 791.136 877.991 791.136H919.647L919.922 697.019C920.013 634.489 919.83 602.995 919.189 602.995C918.732 602.995 899.872 602.995 877.35 602.995H836.334L836.06 625.059C835.876 642.088 835.602 647.032 834.686 646.665C833.771 646.299 796.783 618.833 794.403 616.728C794.037 616.361 799.622 612.15 806.854 607.298C844.208 582.487 862.884 561.247 869.934 535.703C872.772 525.266 872.864 504.118 869.934 493.864C860.596 460.081 831.39 437.01 786.072 427.671C768.677 424.101 742.859 422.727 720.062 424.192ZM755.768 491.667C771.332 495.054 779.297 505.4 777.924 520.506C777.191 529.02 773.712 535.429 765.564 543.394C756.317 552.549 734.711 567.106 732.605 565.733C731.689 565.275 727.57 560.514 723.267 555.204C715.851 546.049 710.175 536.344 707.611 528.379C706.055 523.252 706.146 511.717 707.886 507.688C711.273 499.723 720.337 493.498 731.506 491.392C737.732 490.202 749.634 490.293 755.768 491.667ZM729.584 657.652C731.415 659.025 740.753 666.349 750.275 673.948C759.888 681.547 773.071 691.984 779.571 697.203C786.163 702.421 791.656 706.999 791.748 707.456C792.206 708.555 777.832 715.238 770.508 717.436C754.852 722.105 733.154 722.929 720.154 719.45C704.04 715.055 696.533 706.907 696.533 693.998C696.533 685.85 699.829 678.343 706.879 670.469C711.456 665.342 723.724 655.271 725.464 655.18C725.922 655.18 727.753 656.278 729.584 657.652Z" fill="black"/>
</svg>
